<?xml version="1.0" encoding="UTF-8" standalone="no"?>
<!DOCTYPE svg PUBLIC "-//W3C//DTD SVG 1.1//EN" "http://www.w3.org/Graphics/SVG/1.1/DTD/svg11.dtd">
<svg xmlns="http://www.w3.org/2000/svg" height=100% width=100% version="1.1" viewBox="0.00 0.00 1280.00 397.00">
<g stroke-width="2.00" fill="none" stroke-linecap="butt">
<path stroke="#676767" vector-effect="non-scaling-stroke" d="
  M 256.20 286.03
  C 264.14 290.12 272.57 290.87 281.50 290.97
  Q 334.47 291.54 387.44 290.64
  C 403.89 290.36 414.67 290.18 426.73 279.46
  C 442.08 265.83 443.06 250.04 442.83 230.19
  Q 442.40 193.84 443.03 130.26
  C 443.06 127.00 442.43 123.60 442.19 120.25
  C 440.59 97.45 421.18 79.57 398.48 78.93
  C 358.29 77.79 317.48 77.94 277.28 78.90
  Q 269.40 79.09 265.34 80.08
  C 249.70 83.91 237.08 96.06 232.46 111.34
  Q 231.00 116.19 230.78 124.31
  Q 229.11 184.66 230.77 244.99
  C 231.27 263.31 239.66 277.50 256.20 286.03"
/>
<path stroke="#8c8c8c" vector-effect="non-scaling-stroke" d="
  M 311.50 119.71
  C 303.41 120.37 300.15 130.49 306.74 135.86
  C 309.10 137.78 309.91 138.58 310.03 141.92
  Q 310.25 148.09 310.27 154.26
  C 310.28 158.55 312.10 161.32 314.82 164.27
  Q 315.31 164.80 315.40 164.08
  C 315.88 160.09 314.75 155.47 314.57 152.70
  Q 314.17 146.27 314.26 140.14
  A 3.23 3.22 72.2 0 1 315.56 137.59
  C 317.54 136.12 319.95 134.36 320.71 131.88
  C 322.71 125.28 318.42 119.15 311.50 119.71"
/>
<path stroke="#8c8c8c" vector-effect="non-scaling-stroke" d="
  M 366.97 131.71
  C 363.71 135.84 364.80 139.90 367.42 144.41
  A 1.22 1.16 37.0 0 1 367.56 145.27
  C 365.90 152.95 361.68 156.53 356.41 161.24
  C 354.77 162.70 354.50 164.32 355.39 166.22
  Q 355.66 166.78 356.17 166.43
  C 360.28 163.57 366.88 158.90 368.76 154.13
  C 369.65 151.88 371.71 146.52 374.27 146.24
  Q 380.48 145.57 382.31 140.87
  C 386.23 130.79 373.75 123.09 366.97 131.71"
/>
<path stroke="#676767" vector-effect="non-scaling-stroke" d="
  M 313.01 177.71
  Q 312.29 190.96 313.10 204.44"
/>
<path stroke="#8c8c8c" vector-effect="non-scaling-stroke" d="
  M 313.10 204.44
  C 313.26 217.00 328.57 213.93 336.61 213.79
  C 340.20 213.73 343.98 213.69 347.56 213.80
  C 356.76 214.09 357.96 207.38 357.94 199.55
  Q 357.92 190.22 358.00 180.88
  C 358.05 176.31 357.29 173.16 353.91 170.41
  C 351.84 168.72 350.81 167.28 350.95 164.78
  C 351.53 154.73 346.08 145.88 335.55 145.67
  Q 326.11 145.48 321.39 153.95
  C 319.64 157.08 319.79 161.17 319.47 164.80
  C 318.94 170.74 312.76 171.54 313.01 177.71"
/>
<path stroke="#dadada" vector-effect="non-scaling-stroke" d="
  M 313.10 204.44
  L 313.01 177.71"
/>
<path stroke="#8c8c8c" vector-effect="non-scaling-stroke" d="
  M 284.36 153.50
  C 272.60 154.41 273.48 173.97 287.94 171.60
  A 1.16 1.14 -28.5 0 1 288.87 171.87
  L 297.76 179.65
  Q 298.12 179.96 298.59 179.96
  L 306.86 179.95
  A 1.85 1.85 0.0 0 0 307.40 176.34
  C 305.28 175.69 302.67 176.39 300.61 175.49
  Q 296.87 173.84 294.38 170.33
  C 292.05 167.03 294.44 165.73 294.34 162.65
  C 294.15 156.98 289.91 153.07 284.36 153.50"
/>
<path stroke="#8c8c8c" vector-effect="non-scaling-stroke" d="
  M 387.76 153.56
  C 380.74 153.91 377.26 160.70 379.91 166.88
  Q 380.11 167.32 379.91 167.77
  Q 375.80 177.21 365.25 175.97
  Q 364.47 175.88 362.87 176.52
  Q 362.35 176.73 362.37 177.28
  L 362.41 179.47
  A 0.81 0.81 0.0 0 0 363.23 180.26
  L 374.75 180.06
  A 0.66 0.63 23.0 0 0 375.18 179.90
  C 378.30 177.16 381.24 173.74 384.90 171.79
  A 1.48 1.47 -54.7 0 1 385.81 171.63
  C 400.20 173.82 401.08 152.91 387.76 153.56"
/>
<path stroke="#8c8c8c" vector-effect="non-scaling-stroke" d="
  M 272.76 185.24
  C 265.38 195.29 280.29 205.96 288.46 194.77
  C 289.00 194.04 290.27 193.29 291.00 193.28
  Q 299.36 193.12 307.78 192.89
  Q 308.42 192.87 308.44 192.24
  L 308.53 189.79
  Q 308.55 189.02 307.79 189.03
  L 290.66 189.12
  Q 290.12 189.12 289.76 188.71
  C 286.92 185.50 286.03 181.94 280.91 181.46
  Q 275.87 181.00 272.76 185.24"
/>
<path stroke="#8c8c8c" vector-effect="non-scaling-stroke" d="
  M 389.50 182.23
  C 384.87 184.08 385.61 189.61 379.76 189.00
  Q 376.03 188.61 363.43 189.34
  Q 362.91 189.37 362.59 189.78
  Q 361.64 191.01 362.31 192.49
  Q 362.48 192.89 362.92 192.90
  L 382.71 193.34
  A 1.33 1.28 -22.4 0 1 383.57 193.68
  C 385.84 195.78 387.82 198.46 390.69 199.29
  C 398.03 201.42 404.42 194.05 401.66 187.06
  C 399.72 182.15 394.23 180.34 389.50 182.23"
/>
<path stroke="#676767" vector-effect="non-scaling-stroke" d="
  M 295.75 210.53
  Q 297.50 209.90 298.82 207.98"
/>
<path stroke="#8c8c8c" vector-effect="non-scaling-stroke" d="
  M 298.82 207.98
  Q 301.25 205.65 304.96 206.32"
/>
<path stroke="#676767" vector-effect="non-scaling-stroke" d="
  M 304.96 206.32
  L 307.33 206.61
  Q 307.88 206.68 308.09 206.17
  Q 308.78 204.47 307.79 202.65"
/>
<path stroke="#8c8c8c" vector-effect="non-scaling-stroke" d="
  M 307.79 202.65
  C 299.26 200.39 297.05 203.58 291.37 208.62
  A 1.53 1.52 -67.6 0 1 290.49 208.99
  C 287.99 209.17 285.77 208.14 283.65 208.39
  C 276.91 209.19 273.98 216.27 276.86 222.17
  C 280.54 229.73 292.56 227.34 293.68 219.17
  C 294.04 216.57 292.65 212.69 295.75 210.53"
/>
<path stroke="#dadada" vector-effect="non-scaling-stroke" d="
  M 307.79 202.65
  L 308.02 204.47
  A 1.21 1.18 61.8 0 1 307.76 205.37
  Q 306.86 206.48 304.96 206.32"
/>
<path stroke="#dadada" vector-effect="non-scaling-stroke" d="
  M 298.82 207.98
  Q 297.08 208.42 295.75 210.53"
/>
<path stroke="#8c8c8c" vector-effect="non-scaling-stroke" d="
  M 362.27 203.24
  L 362.14 205.67
  A 0.68 0.68 0.0 0 0 362.90 206.38
  C 370.73 205.49 374.82 206.53 379.09 213.38
  Q 379.36 213.81 379.32 214.32
  Q 379.03 218.57 379.38 219.79
  C 381.09 225.71 387.79 228.56 393.09 225.17
  C 399.63 220.97 398.40 211.27 390.98 208.87
  C 388.52 208.08 385.71 208.65 383.07 209.09
  A 1.27 1.22 56.9 0 1 382.16 208.88
  C 379.59 207.12 375.84 202.12 372.65 202.24
  Q 367.70 202.44 362.97 202.56
  A 0.71 0.71 0.0 0 0 362.27 203.24"
/>
<path stroke="#8c8c8c" vector-effect="non-scaling-stroke" d="
  M 326.82 218.85
  C 326.74 221.89 327.87 231.92 324.09 232.93
  Q 323.05 233.20 320.13 232.28
  C 307.10 228.15 303.04 246.18 314.49 249.31
  Q 318.52 250.42 321.75 248.43
  C 325.68 246.03 325.76 241.93 326.30 237.75
  A 0.42 0.42 0.0 0 1 326.42 237.51
  L 330.59 233.49
  A 0.61 0.57 69.6 0 0 330.77 233.06
  L 330.66 218.91
  A 0.81 0.81 0.0 0 0 329.85 218.11
  L 327.58 218.11
  A 0.76 0.76 0.0 0 0 326.82 218.85"
/>
<path stroke="#8c8c8c" vector-effect="non-scaling-stroke" d="
  M 351.42 227.75
  C 346.51 228.19 343.47 224.86 343.88 220.02
  A 1.43 1.39 28.3 0 0 343.56 219.00
  Q 342.21 217.34 340.19 218.43
  A 0.83 0.81 76.0 0 0 339.77 219.15
  L 339.85 227.12
  A 1.05 1.04 -76.3 0 0 340.39 228.02
  C 343.09 229.53 348.66 231.50 348.96 234.98
  C 349.53 241.34 354.87 244.85 360.84 243.09
  C 368.05 240.97 369.29 230.91 363.04 226.95
  Q 357.48 223.41 352.22 227.44
  A 1.60 1.54 -65.2 0 1 351.42 227.75"
/>
<path stroke="#8c8c8c" vector-effect="non-scaling-stroke" d="
  M 316.92 128.77
  A 4.66 4.66 0.0 0 0 312.26 124.11
  A 4.66 4.66 0.0 0 0 307.60 128.77
  A 4.66 4.66 0.0 0 0 312.26 133.43
  A 4.66 4.66 0.0 0 0 316.92 128.77"
/>
<path stroke="#8c8c8c" vector-effect="non-scaling-stroke" d="
  M 378.66 137.03
  A 4.65 4.65 0.0 0 0 374.01 132.38
  A 4.65 4.65 0.0 0 0 369.36 137.03
  A 4.65 4.65 0.0 0 0 374.01 141.68
  A 4.65 4.65 0.0 0 0 378.66 137.03"
/>
<path stroke="#dadada" vector-effect="non-scaling-stroke" d="
  M 324.41 167.42
  Q 326.82 168.93 332.33 168.12"
/>
<path stroke="#8c8c8c" vector-effect="non-scaling-stroke" d="
  M 332.33 168.12
  L 340.73 168.19"
/>
<path stroke="#dadada" vector-effect="non-scaling-stroke" d="
  M 340.73 168.19
  L 346.04 168.51
  Q 346.44 168.54 346.49 168.14
  L 346.63 167.14"
/>
<path stroke="#8c8c8c" vector-effect="non-scaling-stroke" d="
  M 346.63 167.14
  Q 347.60 160.96 345.34 156.16
  C 342.34 149.77 334.53 147.90 328.86 152.03
  Q 322.28 156.84 324.41 167.42"
/>
<path stroke="#676767" vector-effect="non-scaling-stroke" d="
  M 346.63 167.14
  L 340.73 168.19"
/>
<path stroke="#676767" vector-effect="non-scaling-stroke" d="
  M 332.33 168.12
  L 324.41 167.42"
/>
<path stroke="#8c8c8c" vector-effect="non-scaling-stroke" d="
  M 339.24 181.50
  C 334.04 175.58 327.85 183.72 331.79 189.46
  A 1.20 1.18 33.6 0 1 331.98 190.35
  Q 331.31 194.26 330.38 198.07
  C 328.57 205.56 341.69 204.42 340.50 199.25
  Q 339.25 193.81 338.86 190.02
  A 1.18 1.15 -29.4 0 1 339.12 189.14
  Q 342.39 185.07 339.24 181.50"
/>
<path stroke="#8c8c8c" vector-effect="non-scaling-stroke" d="
  M 289.66 162.50
  A 4.60 4.60 0.0 0 0 285.06 157.90
  A 4.60 4.60 0.0 0 0 280.46 162.50
  A 4.60 4.60 0.0 0 0 285.06 167.10
  A 4.60 4.60 0.0 0 0 289.66 162.50"
/>
<path stroke="#8c8c8c" vector-effect="non-scaling-stroke" d="
  M 392.61 162.49
  A 4.58 4.58 0.0 0 0 388.03 157.91
  A 4.58 4.58 0.0 0 0 383.45 162.49
  A 4.58 4.58 0.0 0 0 388.03 167.07
  A 4.58 4.58 0.0 0 0 392.61 162.49"
/>
<path stroke="#8c8c8c" vector-effect="non-scaling-stroke" d="
  M 284.53 190.61
  A 4.61 4.61 0.0 0 0 279.92 186.00
  A 4.61 4.61 0.0 0 0 275.31 190.61
  A 4.61 4.61 0.0 0 0 279.92 195.22
  A 4.61 4.61 0.0 0 0 284.53 190.61"
/>
<path stroke="#8c8c8c" vector-effect="non-scaling-stroke" d="
  M 397.87 190.53
  A 4.67 4.67 0.0 0 0 393.20 185.86
  A 4.67 4.67 0.0 0 0 388.53 190.53
  A 4.67 4.67 0.0 0 0 393.20 195.20
  A 4.67 4.67 0.0 0 0 397.87 190.53"
/>
<path stroke="#8c8c8c" vector-effect="non-scaling-stroke" d="
  M 289.51 217.44
  A 4.64 4.64 0.0 0 0 284.87 212.80
  A 4.64 4.64 0.0 0 0 280.23 217.44
  A 4.64 4.64 0.0 0 0 284.87 222.08
  A 4.64 4.64 0.0 0 0 289.51 217.44"
/>
<path stroke="#8c8c8c" vector-effect="non-scaling-stroke" d="
  M 392.93 217.52
  A 4.61 4.61 0.0 0 0 388.32 212.91
  A 4.61 4.61 0.0 0 0 383.71 217.52
  A 4.61 4.61 0.0 0 0 388.32 222.13
  A 4.61 4.61 0.0 0 0 392.93 217.52"
/>
<path stroke="#8c8c8c" vector-effect="non-scaling-stroke" d="
  M 321.28 240.77
  A 4.62 4.62 0.0 0 0 316.66 236.15
  A 4.62 4.62 0.0 0 0 312.04 240.77
  A 4.62 4.62 0.0 0 0 316.66 245.39
  A 4.62 4.62 0.0 0 0 321.28 240.77"
/>
<path stroke="#8c8c8c" vector-effect="non-scaling-stroke" d="
  M 362.55 234.62
  A 4.61 4.61 0.0 0 0 357.94 230.01
  A 4.61 4.61 0.0 0 0 353.33 234.62
  A 4.61 4.61 0.0 0 0 357.94 239.23
  A 4.61 4.61 0.0 0 0 362.55 234.62"
/>
</g>
<path fill="#b5b5b5" d="
  M 200.47 121.75
  C 201.72 87.35 227.58 56.98 261.38 49.95
  Q 268.19 48.53 281.27 48.23
  C 300.48 47.79 320.15 47.30 339.32 48.89
  C 345.21 49.38 351.80 48.21 356.57 48.12
  Q 385.64 47.55 397.52 48.22
  Q 437.90 50.47 460.49 83.31
  Q 460.72 83.65 460.79 84.05
  Q 460.83 84.31 460.96 84.53
  Q 470.34 99.87 472.68 117.77
  Q 472.84 118.99 472.23 120.04
  Q 471.97 120.47 471.98 120.98
  Q 473.17 186.61 471.89 252.24
  C 471.80 256.79 471.57 263.03 469.94 267.27
  Q 456.97 301.15 424.19 315.83
  C 418.68 318.30 412.13 318.96 406.04 320.72
  C 403.88 321.34 403.12 320.09 401.21 320.11
  C 357.22 320.63 313.24 320.59 269.24 320.56
  Q 265.52 320.56 262.04 319.61
  Q 258.34 318.59 254.63 317.51
  Q 254.32 317.43 254.05 317.59
  L 253.80 317.74
  Q 253.45 317.95 253.08 317.76
  C 247.81 315.16 241.83 312.73 237.25 309.79
  C 216.80 296.67 202.12 275.09 200.87 250.32
  Q 200.07 234.45 199.94 218.57
  Q 199.41 150.88 200.47 121.75
  Z
  M 256.20 286.03
  C 264.14 290.12 272.57 290.87 281.50 290.97
  Q 334.47 291.54 387.44 290.64
  C 403.89 290.36 414.67 290.18 426.73 279.46
  C 442.08 265.83 443.06 250.04 442.83 230.19
  Q 442.40 193.84 443.03 130.26
  C 443.06 127.00 442.43 123.60 442.19 120.25
  C 440.59 97.45 421.18 79.57 398.48 78.93
  C 358.29 77.79 317.48 77.94 277.28 78.90
  Q 269.40 79.09 265.34 80.08
  C 249.70 83.91 237.08 96.06 232.46 111.34
  Q 231.00 116.19 230.78 124.31
  Q 229.11 184.66 230.77 244.99
  C 231.27 263.31 239.66 277.50 256.20 286.03
  Z"
/>
<path fill="#191919" d="
  M 256.20 286.03
  C 239.66 277.50 231.27 263.31 230.77 244.99
  Q 229.11 184.66 230.78 124.31
  Q 231.00 116.19 232.46 111.34
  C 237.08 96.06 249.70 83.91 265.34 80.08
  Q 269.40 79.09 277.28 78.90
  C 317.48 77.94 358.29 77.79 398.48 78.93
  C 421.18 79.57 440.59 97.45 442.19 120.25
  C 442.43 123.60 443.06 127.00 443.03 130.26
  Q 442.40 193.84 442.83 230.19
  C 443.06 250.04 442.08 265.83 426.73 279.46
  C 414.67 290.18 403.89 290.36 387.44 290.64
  Q 334.47 291.54 281.50 290.97
  C 272.57 290.87 264.14 290.12 256.20 286.03
  Z
  M 311.50 119.71
  C 303.41 120.37 300.15 130.49 306.74 135.86
  C 309.10 137.78 309.91 138.58 310.03 141.92
  Q 310.25 148.09 310.27 154.26
  C 310.28 158.55 312.10 161.32 314.82 164.27
  Q 315.31 164.80 315.40 164.08
  C 315.88 160.09 314.75 155.47 314.57 152.70
  Q 314.17 146.27 314.26 140.14
  A 3.23 3.22 72.2 0 1 315.56 137.59
  C 317.54 136.12 319.95 134.36 320.71 131.88
  C 322.71 125.28 318.42 119.15 311.50 119.71
  Z
  M 366.97 131.71
  C 363.71 135.84 364.80 139.90 367.42 144.41
  A 1.22 1.16 37.0 0 1 367.56 145.27
  C 365.90 152.95 361.68 156.53 356.41 161.24
  C 354.77 162.70 354.50 164.32 355.39 166.22
  Q 355.66 166.78 356.17 166.43
  C 360.28 163.57 366.88 158.90 368.76 154.13
  C 369.65 151.88 371.71 146.52 374.27 146.24
  Q 380.48 145.57 382.31 140.87
  C 386.23 130.79 373.75 123.09 366.97 131.71
  Z
  M 313.01 177.71
  Q 312.29 190.96 313.10 204.44
  C 313.26 217.00 328.57 213.93 336.61 213.79
  C 340.20 213.73 343.98 213.69 347.56 213.80
  C 356.76 214.09 357.96 207.38 357.94 199.55
  Q 357.92 190.22 358.00 180.88
  C 358.05 176.31 357.29 173.16 353.91 170.41
  C 351.84 168.72 350.81 167.28 350.95 164.78
  C 351.53 154.73 346.08 145.88 335.55 145.67
  Q 326.11 145.48 321.39 153.95
  C 319.64 157.08 319.79 161.17 319.47 164.80
  C 318.94 170.74 312.76 171.54 313.01 177.71
  Z
  M 284.36 153.50
  C 272.60 154.41 273.48 173.97 287.94 171.60
  A 1.16 1.14 -28.5 0 1 288.87 171.87
  L 297.76 179.65
  Q 298.12 179.96 298.59 179.96
  L 306.86 179.95
  A 1.85 1.85 0.0 0 0 307.40 176.34
  C 305.28 175.69 302.67 176.39 300.61 175.49
  Q 296.87 173.84 294.38 170.33
  C 292.05 167.03 294.44 165.73 294.34 162.65
  C 294.15 156.98 289.91 153.07 284.36 153.50
  Z
  M 387.76 153.56
  C 380.74 153.91 377.26 160.70 379.91 166.88
  Q 380.11 167.32 379.91 167.77
  Q 375.80 177.21 365.25 175.97
  Q 364.47 175.88 362.87 176.52
  Q 362.35 176.73 362.37 177.28
  L 362.41 179.47
  A 0.81 0.81 0.0 0 0 363.23 180.26
  L 374.75 180.06
  A 0.66 0.63 23.0 0 0 375.18 179.90
  C 378.30 177.16 381.24 173.74 384.90 171.79
  A 1.48 1.47 -54.7 0 1 385.81 171.63
  C 400.20 173.82 401.08 152.91 387.76 153.56
  Z
  M 272.76 185.24
  C 265.38 195.29 280.29 205.96 288.46 194.77
  C 289.00 194.04 290.27 193.29 291.00 193.28
  Q 299.36 193.12 307.78 192.89
  Q 308.42 192.87 308.44 192.24
  L 308.53 189.79
  Q 308.55 189.02 307.79 189.03
  L 290.66 189.12
  Q 290.12 189.12 289.76 188.71
  C 286.92 185.50 286.03 181.94 280.91 181.46
  Q 275.87 181.00 272.76 185.24
  Z
  M 389.50 182.23
  C 384.87 184.08 385.61 189.61 379.76 189.00
  Q 376.03 188.61 363.43 189.34
  Q 362.91 189.37 362.59 189.78
  Q 361.64 191.01 362.31 192.49
  Q 362.48 192.89 362.92 192.90
  L 382.71 193.34
  A 1.33 1.28 -22.4 0 1 383.57 193.68
  C 385.84 195.78 387.82 198.46 390.69 199.29
  C 398.03 201.42 404.42 194.05 401.66 187.06
  C 399.72 182.15 394.23 180.34 389.50 182.23
  Z
  M 295.75 210.53
  Q 297.50 209.90 298.82 207.98
  Q 301.25 205.65 304.96 206.32
  L 307.33 206.61
  Q 307.88 206.68 308.09 206.17
  Q 308.78 204.47 307.79 202.65
  C 299.26 200.39 297.05 203.58 291.37 208.62
  A 1.53 1.52 -67.6 0 1 290.49 208.99
  C 287.99 209.17 285.77 208.14 283.65 208.39
  C 276.91 209.19 273.98 216.27 276.86 222.17
  C 280.54 229.73 292.56 227.34 293.68 219.17
  C 294.04 216.57 292.65 212.69 295.75 210.53
  Z
  M 362.27 203.24
  L 362.14 205.67
  A 0.68 0.68 0.0 0 0 362.90 206.38
  C 370.73 205.49 374.82 206.53 379.09 213.38
  Q 379.36 213.81 379.32 214.32
  Q 379.03 218.57 379.38 219.79
  C 381.09 225.71 387.79 228.56 393.09 225.17
  C 399.63 220.97 398.40 211.27 390.98 208.87
  C 388.52 208.08 385.71 208.65 383.07 209.09
  A 1.27 1.22 56.9 0 1 382.16 208.88
  C 379.59 207.12 375.84 202.12 372.65 202.24
  Q 367.70 202.44 362.97 202.56
  A 0.71 0.71 0.0 0 0 362.27 203.24
  Z
  M 326.82 218.85
  C 326.74 221.89 327.87 231.92 324.09 232.93
  Q 323.05 233.20 320.13 232.28
  C 307.10 228.15 303.04 246.18 314.49 249.31
  Q 318.52 250.42 321.75 248.43
  C 325.68 246.03 325.76 241.93 326.30 237.75
  A 0.42 0.42 0.0 0 1 326.42 237.51
  L 330.59 233.49
  A 0.61 0.57 69.6 0 0 330.77 233.06
  L 330.66 218.91
  A 0.81 0.81 0.0 0 0 329.85 218.11
  L 327.58 218.11
  A 0.76 0.76 0.0 0 0 326.82 218.85
  Z
  M 351.42 227.75
  C 346.51 228.19 343.47 224.86 343.88 220.02
  A 1.43 1.39 28.3 0 0 343.56 219.00
  Q 342.21 217.34 340.19 218.43
  A 0.83 0.81 76.0 0 0 339.77 219.15
  L 339.85 227.12
  A 1.05 1.04 -76.3 0 0 340.39 228.02
  C 343.09 229.53 348.66 231.50 348.96 234.98
  C 349.53 241.34 354.87 244.85 360.84 243.09
  C 368.05 240.97 369.29 230.91 363.04 226.95
  Q 357.48 223.41 352.22 227.44
  A 1.60 1.54 -65.2 0 1 351.42 227.75
  Z"
/>
<path fill="#ffffff" d="
  M 306.74 135.86
  C 300.15 130.49 303.41 120.37 311.50 119.71
  C 318.42 119.15 322.71 125.28 320.71 131.88
  C 319.95 134.36 317.54 136.12 315.56 137.59
  A 3.23 3.22 72.2 0 0 314.26 140.14
  Q 314.17 146.27 314.57 152.70
  C 314.75 155.47 315.88 160.09 315.40 164.08
  Q 315.31 164.80 314.82 164.27
  C 312.10 161.32 310.28 158.55 310.27 154.26
  Q 310.25 148.09 310.03 141.92
  C 309.91 138.58 309.10 137.78 306.74 135.86
  Z
  M 316.92 128.77
  A 4.66 4.66 0.0 0 0 312.26 124.11
  A 4.66 4.66 0.0 0 0 307.60 128.77
  A 4.66 4.66 0.0 0 0 312.26 133.43
  A 4.66 4.66 0.0 0 0 316.92 128.77
  Z"
/>
<circle fill="#191919" cx="312.26" cy="128.77" r="4.66"/>
<path fill="#ffffff" d="
  M 366.97 131.71
  C 373.75 123.09 386.23 130.79 382.31 140.87
  Q 380.48 145.57 374.27 146.24
  C 371.71 146.52 369.65 151.88 368.76 154.13
  C 366.88 158.90 360.28 163.57 356.17 166.43
  Q 355.66 166.78 355.39 166.22
  C 354.50 164.32 354.77 162.70 356.41 161.24
  C 361.68 156.53 365.90 152.95 367.56 145.27
  A 1.22 1.16 37.0 0 0 367.42 144.41
  C 364.80 139.90 363.71 135.84 366.97 131.71
  Z
  M 378.66 137.03
  A 4.65 4.65 0.0 0 0 374.01 132.38
  A 4.65 4.65 0.0 0 0 369.36 137.03
  A 4.65 4.65 0.0 0 0 374.01 141.68
  A 4.65 4.65 0.0 0 0 378.66 137.03
  Z"
/>
<circle fill="#191919" cx="374.01" cy="137.03" r="4.65"/>
<path fill="#000000" d="
  M 979.75 164.25
  A 1.24 1.23 84.1 0 0 981.07 165.33
  Q 990.08 164.62 998.79 164.89
  C 1013.43 165.36 1020.52 171.71 1021.54 186.35
  Q 1022.45 199.36 1021.85 212.41
  Q 1021.82 213.00 1021.23 213.00
  L 1007.75 213.00
  Q 1007.00 213.00 1007.00 212.25
  L 1007.00 182.51
  A 0.90 0.88 18.4 0 0 1006.63 181.79
  C 1003.54 179.62 1000.62 177.42 996.69 177.19
  Q 990.19 176.83 983.74 178.03
  C 979.08 178.91 979.33 183.17 979.27 186.82
  Q 979.04 199.66 978.93 212.51
  Q 978.93 213.00 978.44 213.00
  L 965.54 213.00
  Q 965.01 213.00 965.01 212.47
  Q 964.95 184.33 965.08 156.26
  Q 965.10 150.77 965.75 143.80
  A 1.83 1.82 -75.4 0 1 968.30 142.30
  C 972.86 144.32 978.72 146.66 978.89 152.69
  Q 979.05 158.70 979.75 164.25
  Z"
/>
<path fill="#000000" d="
  M 938.56 143.50
  Q 939.14 141.22 941.19 142.37
  L 951.75 148.28
  Q 952.24 148.56 952.24 149.12
  L 951.74 212.22
  A 0.78 0.77 -83.4 0 1 950.80 212.97
  Q 948.50 212.46 946.23 211.81
  C 941.26 210.40 939.15 212.52 934.66 213.28
  C 914.11 216.78 893.71 215.73 895.04 188.20
  C 895.57 177.26 898.24 169.03 909.49 166.02
  Q 920.56 163.05 931.99 165.26
  Q 933.59 165.56 936.79 165.12
  Q 937.31 165.04 937.37 164.53
  C 938.25 157.75 936.97 149.80 938.56 143.50
  Z
  M 910.94 181.44
  Q 907.62 187.10 909.40 194.56
  C 911.50 203.37 923.39 202.10 929.97 201.50
  C 934.01 201.13 936.96 201.22 937.51 196.75
  C 937.99 192.84 939.62 180.75 935.16 178.81
  C 930.11 176.61 914.27 175.76 910.94 181.44
  Z"
/>
<rect fill="#000000" x="-7.07" y="-5.91" transform="translate(872.63,148.96) rotate(-0.8)" width="14.14" height="11.82" rx="5.39"/>
<rect fill="#000000" x="-6.80" y="-5.90" transform="translate(1042.94,148.94) rotate(0.5)" width="13.60" height="11.80" rx="5.03"/>
<path fill="#ffffff" d="
  M 313.10 204.44
  L 313.01 177.71
  C 312.76 171.54 318.94 170.74 319.47 164.80
  C 319.79 161.17 319.64 157.08 321.39 153.95
  Q 326.11 145.48 335.55 145.67
  C 346.08 145.88 351.53 154.73 350.95 164.78
  C 350.81 167.28 351.84 168.72 353.91 170.41
  C 357.29 173.16 358.05 176.31 358.00 180.88
  Q 357.92 190.22 357.94 199.55
  C 357.96 207.38 356.76 214.09 347.56 213.80
  C 343.98 213.69 340.20 213.73 336.61 213.79
  C 328.57 213.93 313.26 217.00 313.10 204.44
  Z
  M 324.41 167.42
  Q 326.82 168.93 332.33 168.12
  L 340.73 168.19
  L 346.04 168.51
  Q 346.44 168.54 346.49 168.14
  L 346.63 167.14
  Q 347.60 160.96 345.34 156.16
  C 342.34 149.77 334.53 147.90 328.86 152.03
  Q 322.28 156.84 324.41 167.42
  Z
  M 339.24 181.50
  C 334.04 175.58 327.85 183.72 331.79 189.46
  A 1.20 1.18 33.6 0 1 331.98 190.35
  Q 331.31 194.26 330.38 198.07
  C 328.57 205.56 341.69 204.42 340.50 199.25
  Q 339.25 193.81 338.86 190.02
  A 1.18 1.15 -29.4 0 1 339.12 189.14
  Q 342.39 185.07 339.24 181.50
  Z"
/>
<path fill="#191919" d="
  M 346.63 167.14
  L 340.73 168.19
  L 332.33 168.12
  L 324.41 167.42
  Q 322.28 156.84 328.86 152.03
  C 334.53 147.90 342.34 149.77 345.34 156.16
  Q 347.60 160.96 346.63 167.14
  Z"
/>
<path fill="#000000" d="
  M 527.05 173.59
  A 1.13 1.12 37.7 0 0 525.15 173.83
  C 524.91 174.37 524.41 175.77 524.38 176.43
  Q 523.71 194.02 524.09 212.14
  Q 524.11 213.09 523.15 213.07
  L 509.79 212.81
  A 1.59 1.59 0.0 0 1 508.23 211.23
  L 507.90 150.60
  Q 507.90 149.84 508.66 149.86
  L 524.97 150.37
  Q 525.53 150.38 525.89 150.82
  Q 537.78 165.26 549.42 179.80
  Q 553.57 184.97 557.95 189.15
  A 1.03 1.02 22.0 0 0 559.68 188.42
  L 560.13 150.81
  Q 560.14 150.00 560.95 150.00
  L 575.25 150.00
  Q 576.00 150.00 576.00 150.75
  L 576.00 212.49
  A 0.51 0.51 0.0 0 1 575.49 213.00
  C 569.37 213.02 560.18 214.64 555.80 209.17
  Q 541.70 191.55 527.05 173.59
  Z"
/>
<path fill="#000000" d="
  M 799.90 174.47
  A 0.75 0.74 -25.0 0 0 799.74 174.90
  L 798.85 212.33
  Q 798.83 213.00 798.17 213.00
  L 783.75 213.00
  Q 783.00 213.00 783.00 212.25
  L 783.00 150.50
  A 0.50 0.50 0.0 0 1 783.50 150.00
  L 800.30 150.00
  Q 800.85 150.00 801.17 150.44
  C 810.58 163.25 820.91 175.26 830.79 187.71
  Q 832.04 189.29 833.20 189.34
  Q 834.40 189.40 834.46 188.21
  Q 835.36 169.56 834.91 150.90
  Q 834.89 150.00 835.78 150.00
  L 850.25 150.00
  Q 851.00 150.00 851.00 150.75
  L 851.00 212.50
  A 0.50 0.50 0.0 0 1 850.50 213.00
  L 835.26 213.00
  A 2.40 2.40 0.0 0 1 833.41 212.13
  C 827.65 205.18 821.77 196.25 815.16 190.29
  C 813.90 189.15 813.49 187.74 812.58 186.61
  Q 807.54 180.32 802.17 174.35
  Q 801.01 173.05 799.90 174.47
  Z"
/>
<path fill="#ffffff" d="
  M 287.94 171.60
  C 273.48 173.97 272.60 154.41 284.36 153.50
  C 289.91 153.07 294.15 156.98 294.34 162.65
  C 294.44 165.73 292.05 167.03 294.38 170.33
  Q 296.87 173.84 300.61 175.49
  C 302.67 176.39 305.28 175.69 307.40 176.34
  A 1.85 1.85 0.0 0 1 306.86 179.95
  L 298.59 179.96
  Q 298.12 179.96 297.76 179.65
  L 288.87 171.87
  A 1.16 1.14 -28.5 0 0 287.94 171.60
  Z
  M 289.66 162.50
  A 4.60 4.60 0.0 0 0 285.06 157.90
  A 4.60 4.60 0.0 0 0 280.46 162.50
  A 4.60 4.60 0.0 0 0 285.06 167.10
  A 4.60 4.60 0.0 0 0 289.66 162.50
  Z"
/>
<path fill="#ffffff" d="
  M 379.91 166.88
  C 377.26 160.70 380.74 153.91 387.76 153.56
  C 401.08 152.91 400.20 173.82 385.81 171.63
  A 1.48 1.47 -54.7 0 0 384.90 171.79
  C 381.24 173.74 378.30 177.16 375.18 179.90
  A 0.66 0.63 23.0 0 1 374.75 180.06
  L 363.23 180.26
  A 0.81 0.81 0.0 0 1 362.41 179.47
  L 362.37 177.28
  Q 362.35 176.73 362.87 176.52
  Q 364.47 175.88 365.25 175.97
  Q 375.80 177.21 379.91 167.77
  Q 380.11 167.32 379.91 166.88
  Z
  M 392.61 162.49
  A 4.58 4.58 0.0 0 0 388.03 157.91
  A 4.58 4.58 0.0 0 0 383.45 162.49
  A 4.58 4.58 0.0 0 0 388.03 167.07
  A 4.58 4.58 0.0 0 0 392.61 162.49
  Z"
/>
<circle fill="#191919" cx="388.03" cy="162.49" r="4.58"/>
<circle fill="#191919" cx="285.06" cy="162.50" r="4.60"/>
<path fill="#000000" d="
  M 694.04 184.33
  C 691.44 172.68 665.93 177.50 658.16 179.62
  A 0.92 0.92 0.0 0 1 657.00 178.73
  L 657.00 166.72
  Q 657.00 166.01 657.70 165.91
  Q 674.36 163.49 690.98 165.34
  Q 696.81 165.99 701.41 169.62
  C 707.55 174.45 707.47 177.96 707.83 186.20
  Q 708.38 198.96 707.68 211.39
  A 1.95 1.94 22.5 0 1 704.44 212.73
  C 700.27 209.00 695.21 212.55 690.49 213.39
  Q 676.54 215.85 665.51 214.04
  C 650.11 211.50 644.54 192.26 662.22 186.53
  C 671.48 183.53 683.30 184.54 692.77 185.73
  A 1.16 1.16 0.0 0 0 694.04 184.33
  Z
  M 670.03 195.93
  C 664.97 196.61 664.36 202.61 669.98 203.28
  C 675.71 203.97 687.77 204.78 692.95 202.11
  A 0.89 0.89 0.0 0 0 693.43 201.32
  L 693.39 197.67
  A 0.94 0.92 16.1 0 0 692.96 196.91
  C 688.34 194.00 675.39 195.21 670.03 195.93
  Z"
/>
<path fill="#000000" d="
  M 609.81 215.68
  C 602.38 199.72 594.27 184.19 587.03 168.31
  A 1.53 1.53 0.0 0 1 588.40 166.14
  L 599.90 165.94
  Q 600.55 165.93 600.81 166.53
  Q 607.54 182.25 613.06 193.69
  Q 613.68 194.98 615.00 196.38
  A 0.77 0.76 -32.7 0 0 615.85 196.56
  Q 617.67 195.82 618.41 194.10
  Q 621.28 187.37 629.11 168.25
  C 630.56 164.71 639.89 166.00 643.04 166.43
  A 1.13 1.12 15.3 0 1 643.93 167.98
  Q 634.15 191.49 623.28 215.05
  C 622.63 216.44 622.21 218.61 621.29 220.16
  Q 618.41 225.01 615.50 229.85
  C 612.79 234.38 606.12 236.53 601.24 237.52
  C 598.62 238.04 592.27 238.30 592.13 234.33
  Q 591.92 228.07 592.01 224.61
  Q 592.03 224.06 592.57 224.04
  C 601.71 223.73 604.59 225.60 609.77 216.64
  A 1.04 1.04 0.0 0 0 609.81 215.68
  Z"
/>
<path fill="#000000" d="
  M 717.99 167.78
  Q 718.25 166.03 720.33 166.08
  C 725.41 166.21 731.02 165.28 733.54 170.98
  Q 739.02 183.36 745.27 195.65
  A 1.67 1.66 -32.6 0 0 747.79 196.20
  Q 749.19 195.09 750.22 192.63
  Q 755.54 179.94 760.37 167.05
  Q 760.57 166.53 761.12 166.44
  Q 767.38 165.46 773.66 166.45
  A 1.70 1.69 -72.2 0 1 774.90 168.88
  C 765.90 186.86 759.69 204.29 749.95 223.94
  Q 741.87 240.25 723.53 236.86
  Q 723.00 236.76 723.00 236.23
  L 723.00 224.51
  A 0.49 0.48 -0.6 0 1 723.48 224.03
  C 729.59 223.87 737.02 225.55 739.52 218.05
  C 740.51 215.06 736.93 208.10 736.02 206.27
  Q 726.77 187.54 718.13 168.72
  A 1.67 1.66 36.7 0 1 717.99 167.78
  Z"
/>
<path fill="#000000" d="
  M 865.99 167.29
  A 1.99 1.99 0.0 0 1 868.87 166.12
  L 879.53 172.08
  A 0.91 0.90 14.7 0 1 880.00 172.87
  L 880.00 212.50
  A 0.50 0.50 0.0 0 1 879.50 213.00
  L 865.55 213.00
  Q 865.06 213.00 865.05 212.50
  Q 864.92 193.58 864.93 174.76
  Q 864.94 170.78 865.99 167.29
  Z"
/>
<path fill="#000000" d="
  M 1036.88 166.52
  A 0.85 0.84 19.2 0 1 1038.11 165.93
  L 1049.47 171.96
  Q 1049.98 172.23 1049.99 172.81
  L 1050.43 210.72
  A 1.73 1.72 -1.9 0 1 1048.79 212.46
  L 1036.61 213.10
  Q 1036.05 213.12 1036.05 212.56
  Q 1035.92 194.49 1035.95 176.51
  Q 1035.95 171.48 1036.88 166.52
  Z"
/>
<path fill="#b5b5b5" d="
  M 324.41 167.42
  L 332.33 168.12
  Q 326.82 168.93 324.41 167.42
  Z"
/>
<path fill="#b5b5b5" d="
  M 346.63 167.14
  L 346.49 168.14
  Q 346.44 168.54 346.04 168.51
  L 340.73 168.19
  L 346.63 167.14
  Z"
/>
<path fill="#b5b5b5" d="
  M 313.01 177.71
  L 313.10 204.44
  Q 312.29 190.96 313.01 177.71
  Z"
/>
<path fill="#191919" d="
  M 331.79 189.46
  C 327.85 183.72 334.04 175.58 339.24 181.50
  Q 342.39 185.07 339.12 189.14
  A 1.18 1.15 -29.4 0 0 338.86 190.02
  Q 339.25 193.81 340.50 199.25
  C 341.69 204.42 328.57 205.56 330.38 198.07
  Q 331.31 194.26 331.98 190.35
  A 1.20 1.18 33.6 0 0 331.79 189.46
  Z"
/>
<path fill="#ffffff" d="
  M 272.76 185.24
  Q 275.87 181.00 280.91 181.46
  C 286.03 181.94 286.92 185.50 289.76 188.71
  Q 290.12 189.12 290.66 189.12
  L 307.79 189.03
  Q 308.55 189.02 308.53 189.79
  L 308.44 192.24
  Q 308.42 192.87 307.78 192.89
  Q 299.36 193.12 291.00 193.28
  C 290.27 193.29 289.00 194.04 288.46 194.77
  C 280.29 205.96 265.38 195.29 272.76 185.24
  Z
  M 284.53 190.61
  A 4.61 4.61 0.0 0 0 279.92 186.00
  A 4.61 4.61 0.0 0 0 275.31 190.61
  A 4.61 4.61 0.0 0 0 279.92 195.22
  A 4.61 4.61 0.0 0 0 284.53 190.61
  Z"
/>
<path fill="#ffffff" d="
  M 379.76 189.00
  C 385.61 189.61 384.87 184.08 389.50 182.23
  C 394.23 180.34 399.72 182.15 401.66 187.06
  C 404.42 194.05 398.03 201.42 390.69 199.29
  C 387.82 198.46 385.84 195.78 383.57 193.68
  A 1.33 1.28 -22.4 0 0 382.71 193.34
  L 362.92 192.90
  Q 362.48 192.89 362.31 192.49
  Q 361.64 191.01 362.59 189.78
  Q 362.91 189.37 363.43 189.34
  Q 376.03 188.61 379.76 189.00
  Z
  M 397.87 190.53
  A 4.67 4.67 0.0 0 0 393.20 185.86
  A 4.67 4.67 0.0 0 0 388.53 190.53
  A 4.67 4.67 0.0 0 0 393.20 195.20
  A 4.67 4.67 0.0 0 0 397.87 190.53
  Z"
/>
<circle fill="#191919" cx="393.20" cy="190.53" r="4.67"/>
<circle fill="#191919" cx="279.92" cy="190.61" r="4.61"/>
<path fill="#ffffff" d="
  M 307.79 202.65
  L 308.02 204.47
  A 1.21 1.18 61.8 0 1 307.76 205.37
  Q 306.86 206.48 304.96 206.32
  Q 301.25 205.65 298.82 207.98
  Q 297.08 208.42 295.75 210.53
  C 292.65 212.69 294.04 216.57 293.68 219.17
  C 292.56 227.34 280.54 229.73 276.86 222.17
  C 273.98 216.27 276.91 209.19 283.65 208.39
  C 285.77 208.14 287.99 209.17 290.49 208.99
  A 1.53 1.52 -67.6 0 0 291.37 208.62
  C 297.05 203.58 299.26 200.39 307.79 202.65
  Z
  M 289.51 217.44
  A 4.64 4.64 0.0 0 0 284.87 212.80
  A 4.64 4.64 0.0 0 0 280.23 217.44
  A 4.64 4.64 0.0 0 0 284.87 222.08
  A 4.64 4.64 0.0 0 0 289.51 217.44
  Z"
/>
<path fill="#ffffff" d="
  M 362.27 203.24
  A 0.71 0.71 0.0 0 1 362.97 202.56
  Q 367.70 202.44 372.65 202.24
  C 375.84 202.12 379.59 207.12 382.16 208.88
  A 1.27 1.22 56.9 0 0 383.07 209.09
  C 385.71 208.65 388.52 208.08 390.98 208.87
  C 398.40 211.27 399.63 220.97 393.09 225.17
  C 387.79 228.56 381.09 225.71 379.38 219.79
  Q 379.03 218.57 379.32 214.32
  Q 379.36 213.81 379.09 213.38
  C 374.82 206.53 370.73 205.49 362.90 206.38
  A 0.68 0.68 0.0 0 1 362.14 205.67
  L 362.27 203.24
  Z
  M 392.93 217.52
  A 4.61 4.61 0.0 0 0 388.32 212.91
  A 4.61 4.61 0.0 0 0 383.71 217.52
  A 4.61 4.61 0.0 0 0 388.32 222.13
  A 4.61 4.61 0.0 0 0 392.93 217.52
  Z"
/>
<path fill="#b5b5b5" d="
  M 307.79 202.65
  Q 308.78 204.47 308.09 206.17
  Q 307.88 206.68 307.33 206.61
  L 304.96 206.32
  Q 306.86 206.48 307.76 205.37
  A 1.21 1.18 61.8 0 0 308.02 204.47
  L 307.79 202.65
  Z"
/>
<path fill="#b5b5b5" d="
  M 298.82 207.98
  Q 297.50 209.90 295.75 210.53
  Q 297.08 208.42 298.82 207.98
  Z"
/>
<circle fill="#191919" cx="284.87" cy="217.44" r="4.64"/>
<circle fill="#191919" cx="388.32" cy="217.52" r="4.61"/>
<path fill="#ffffff" d="
  M 327.58 218.11
  L 329.85 218.11
  A 0.81 0.81 0.0 0 1 330.66 218.91
  L 330.77 233.06
  A 0.61 0.57 69.6 0 1 330.59 233.49
  L 326.42 237.51
  A 0.42 0.42 0.0 0 0 326.30 237.75
  C 325.76 241.93 325.68 246.03 321.75 248.43
  Q 318.52 250.42 314.49 249.31
  C 303.04 246.18 307.10 228.15 320.13 232.28
  Q 323.05 233.20 324.09 232.93
  C 327.87 231.92 326.74 221.89 326.82 218.85
  A 0.76 0.76 0.0 0 1 327.58 218.11
  Z
  M 321.28 240.77
  A 4.62 4.62 0.0 0 0 316.66 236.15
  A 4.62 4.62 0.0 0 0 312.04 240.77
  A 4.62 4.62 0.0 0 0 316.66 245.39
  A 4.62 4.62 0.0 0 0 321.28 240.77
  Z"
/>
<path fill="#ffffff" d="
  M 343.88 220.02
  C 343.47 224.86 346.51 228.19 351.42 227.75
  A 1.60 1.54 -65.2 0 0 352.22 227.44
  Q 357.48 223.41 363.04 226.95
  C 369.29 230.91 368.05 240.97 360.84 243.09
  C 354.87 244.85 349.53 241.34 348.96 234.98
  C 348.66 231.50 343.09 229.53 340.39 228.02
  A 1.05 1.04 -76.3 0 1 339.85 227.12
  L 339.77 219.15
  A 0.83 0.81 76.0 0 1 340.19 218.43
  Q 342.21 217.34 343.56 219.00
  A 1.43 1.39 28.3 0 1 343.88 220.02
  Z
  M 362.55 234.62
  A 4.61 4.61 0.0 0 0 357.94 230.01
  A 4.61 4.61 0.0 0 0 353.33 234.62
  A 4.61 4.61 0.0 0 0 357.94 239.23
  A 4.61 4.61 0.0 0 0 362.55 234.62
  Z"
/>
<circle fill="#191919" cx="357.94" cy="234.62" r="4.61"/>
<circle fill="#191919" cx="316.66" cy="240.77" r="4.62"/>
</svg>
